<?xml version="1.0" encoding="utf-8"?>
<svg viewBox="0 0 88.235 100.84" xmlns="http://www.w3.org/2000/svg">
  <path class="cls-1" d="M 74.147 20.471 L 65.571 20.471 L 52.827 47.948 C 52.376 49.127 51.398 49.914 50.294 49.987 L 43.433 49.987 C 40.74 49.987 40.411 48.575 40.411 48.261 L 40.411 55.975 C 40.411 55.975 40.98 57.604 43.594 57.604 L 53.972 57.604 C 59.282 57.685 63.613 62 63.613 67.103 C 63.613 72.284 59.282 76.523 53.972 76.523 L 36.848 76.523 C 34.591 76.681 34.305 77.94 34.305 78.235 L 34.305 84.059 L 54.053 84.059 C 63.772 84.059 71.615 76.364 71.615 67.1 C 71.615 59.721 66.716 53.44 60.014 51.008 L 74.147 20.471 Z" style="fill: rgb(255, 50, 50); fill-rule: evenodd;" transform="matrix(-1, 0, 0, -1, 108.452003, 104.529999)"/>
  <path class="cls-1" d="M 11.065 82.375 C 18.14 79.16 24.613 74.375 24.613 59.491 L 24.613 7.218 L 34.6 7.218 L 34.6 56.725 C 34.6 81.253 11.065 85.218 11.065 85.218 L 11.065 82.377 L 11.065 82.375 Z M 16.944 71.857 L 6.754 71.857 L 16.944 71.857 Z" style="fill: rgb(255, 50, 50); fill-rule: evenodd;"/>
</svg>