<svg width="305" height="425" viewBox="0 0 305 425" fill="none" xmlns="http://www.w3.org/2000/svg">
<path d="M22.8035 62.5C54.3036 1 149.804 1 149.804 1C149.804 1 264.567 8.49992 288.803 71.5C313.039 134.5 288.039 81.4998 302.039 218C316.039 354.5 241.804 349.5 241.804 349.5C241.804 349.5 208.304 424 149.804 424C91.3035 424 54.3035 354.5 54.3035 354.5C-34.1967 330.5 15.9987 273.727 8.80351 218C0.950445 157.177 -8.69654 124 22.8035 62.5Z" fill="black" stroke="#FF0000" stroke-width="2"/>
<path d="M140.039 66C93.5393 71.5 94.5393 77.5 74.0393 105C74.0393 105 114.98 97.3151 141.539 96.25C167.909 95.1925 209.039 99.5 209.039 99.5C202.539 66 140.039 66 140.039 66Z" fill="white" stroke="#FF0000" stroke-width="2"/>
<path d="M274.539 193.5C227.039 98.5001 59.539 125.5 30.0391 188C30.0391 292 81.5393 340.5 97.039 343C107.039 283.5 151.539 283.5 151.539 283.5C151.539 283.5 187.039 285.5 206.039 333.5C243.039 312.5 268.539 266.5 274.539 193.5Z" fill="white" stroke="#FF0000" stroke-width="2"/>
<ellipse cx="224.539" cy="221" rx="40.5" ry="63" fill="black"/>
<ellipse cx="80.5393" cy="225" rx="40.5" ry="63" fill="black"/>
<path d="M152.539 319C181.539 325.5 179.142 343 181.539 361C152.539 369.5 147.039 367 120.539 361C121.039 342 126.039 319 152.539 319Z" fill="white" stroke="#FF0000" stroke-width="2"/>
<path d="M166.539 348C165.902 339 138.039 342 140.039 348C141.144 351.314 141.399 355.057 144.039 356C151.039 358.5 164.539 356 164.539 356C164.539 356 166.767 351.212 166.539 348Z" fill="black" stroke="#FF0000" stroke-width="2"/>
</svg>
