<?xml version="1.0" standalone="no"?>
<!DOCTYPE svg PUBLIC "-//W3C//DTD SVG 20010904//EN"
 "http://www.w3.org/TR/2001/REC-SVG-20010904/DTD/svg10.dtd">
<svg version="1.0" xmlns="http://www.w3.org/2000/svg"
 width="500.000000pt" height="500.000000pt" viewBox="0 0 500.000000 500.000000"
 preserveAspectRatio="xMidYMid meet">

<g transform="translate(0.000000,500.000000) scale(0.100000,-0.100000)"
fill="#F00000" stroke="none">
<path d="M2660 4735 l0 -145 838 -2 837 -3 3 -992 2 -993 160 0 160 0 0 1140
0 1140 -1000 0 -1000 0 0 -145z"/>
<path d="M2210 3460 l0 -270 -710 0 -710 0 0 -220 0 -220 708 -2 707 -3 3
-932 2 -933 220 0 220 0 0 1425 0 1425 -220 0 -220 0 0 -270z"/>
<path d="M2900 3520 l0 -210 48 0 c27 0 83 -9 126 -20 184 -47 329 -164 409
-331 53 -110 67 -169 67 -284 0 -111 -14 -173 -61 -272 -99 -207 -294 -344
-516 -360 l-73 -6 1 -221 0 -221 427 -357 427 -358 345 0 345 1 -24 20 c-14
11 -251 210 -528 441 l-502 421 65 39 c346 201 540 584 503 989 -37 403 -308
746 -693 879 -89 31 -245 60 -323 60 l-43 0 0 -210z"/>
<path d="M322 1228 l3 -1173 1033 -3 1032 -2 0 145 0 145 -885 0 -885 0 0
1030 0 1030 -150 0 -150 0 2 -1172z"/>
</g>
</svg>
