<?xml version="1.0" standalone="no"?>
<!DOCTYPE svg PUBLIC "-//W3C//DTD SVG 20010904//EN"
 "http://www.w3.org/TR/2001/REC-SVG-20010904/DTD/svg10.dtd">
<svg version="1.0" xmlns="http://www.w3.org/2000/svg"
 width="500.000000pt" height="500.000000pt" viewBox="0 0 500.000000 500.000000"
 preserveAspectRatio="xMidYMid meet">

<g transform="translate(0.000000,500.000000) scale(0.100000,-0.100000)"
fill="#000000" stroke="none">
<path d="M2662 4733 l3 -148 832 -3 833 -2 2 -993 3 -992 165 0 165 0 3 1143
2 1142 -1005 0 -1006 0 3 -147z"/>
<path d="M2210 3460 l0 -270 -710 0 -710 0 2 -222 3 -223 708 -3 707 -2 0
-935 0 -935 220 0 220 0 0 1430 0 1430 -220 0 -220 0 0 -270z"/>
<path d="M2900 3523 l0 -210 73 -6 c251 -20 472 -197 550 -442 31 -100 31
-280 0 -380 -78 -245 -299 -422 -550 -442 l-73 -6 0 -221 0 -221 433 -362 432
-363 345 0 c339 0 344 0 325 19 -11 10 -247 209 -525 441 -278 233 -506 426
-508 431 -2 4 12 15 30 25 73 37 181 120 245 188 313 329 378 812 163 1214
-164 305 -494 515 -847 539 l-93 6 0 -210z"/>
<path d="M320 1232 c0 -895 3 -1171 12 -1180 9 -9 253 -12 1035 -12 l1023 0 0
150 0 150 -885 0 -885 0 0 1030 0 1030 -150 0 -150 0 0 -1168z"/>
</g>
</svg>
